<?xml version="1.0" encoding="utf-8"?>
<!-- Generator: Adobe Illustrator 22.0.1, SVG Export Plug-In . SVG Version: 6.00 Build 0)  -->
<svg version="1.1" id="Layer_1" xmlns="http://www.w3.org/2000/svg" xmlns:xlink="http://www.w3.org/1999/xlink" x="0px" y="0px"
	 width="24px" height="24px" viewBox="0 0 24 24" style="enable-background:new 0 0 24 24;" xml:space="preserve">
<g>
	<path style="fill:#666666;" d="M14,16c-1.8,0-3.6-0.8-4.8-2.4c-0.3-0.4-0.2-1.1,0.2-1.4c0.4-0.3,1.1-0.2,1.4,0.2
		c1.3,1.8,3.8,2.1,5.6,0.8c0.2-0.1,3.4-3.4,3.4-3.4c1.5-1.6,1.5-4.1-0.1-5.6s-4-1.5-5.6,0l-1.7,1.7c-0.4,0.4-1,0.4-1.4,0
		s-0.4-1,0-1.4l1.7-1.7c2.3-2.3,6-2.3,8.3,0c2.4,2.3,2.4,6.1,0.1,8.5c0,0-3.4,3.4-3.7,3.6C16.5,15.6,15.3,16,14,16z"/>
</g>
<g>
	<path style="fill:#666666;" d="M7.1,22.9c-1.5,0-3-0.6-4.2-1.7c-2.4-2.3-2.4-6.1-0.1-8.5c0,0,3.4-3.3,3.6-3.5
		c1.3-1,2.9-1.4,4.4-1.1c1.6,0.2,3,1.1,3.9,2.3c0.3,0.4,0.2,1.1-0.2,1.4c-0.4,0.3-1.1,0.2-1.4-0.2c-0.6-0.9-1.6-1.4-2.6-1.6
		c-1.1-0.2-2.1,0.1-3,0.8c-0.2,0.1-3.4,3.4-3.4,3.4c-1.5,1.6-1.5,4.1,0.1,5.6s4,1.5,5.6,0l1.7-1.7c0.4-0.4,1-0.4,1.4,0s0.4,1,0,1.4
		l-1.7,1.7C10.1,22.4,8.6,22.9,7.1,22.9z"/>
</g>
</svg>
